<svg xmlns="http://www.w3.org/2000/svg" xmlns:xlink="http://www.w3.org/1999/xlink" width="500" zoomAndPan="magnify" viewBox="0 0 375 374.999991" height="500" preserveAspectRatio="xMidYMid meet" version="1.0"><rect x="-37.5" width="450" fill="#ffffff" y="-37.499999" height="449.999989" fill-opacity="1"/><path fill="#588fdf" d="M 131.136719 9.929688 L 145.5 9.929688 C 149.683594 9.929688 153.105469 13.355469 153.105469 17.542969 L 153.105469 23.132812 C 153.105469 26.628906 155.382812 29.601562 158.753906 30.492188 C 165.492188 32.3125 171.878906 34.980469 177.757812 38.382812 C 180.789062 40.125 184.492188 39.648438 186.972656 37.164062 L 190.90625 33.226562 C 193.871094 30.234375 198.71875 30.234375 201.679688 33.226562 L 211.835938 43.371094 C 214.804688 46.34375 214.804688 51.195312 211.835938 54.15625 L 207.878906 58.117188 C 205.421875 60.601562 204.914062 64.308594 206.6875 67.34375 C 210.09375 73.234375 212.75 79.605469 214.542969 86.339844 C 215.460938 89.722656 218.402344 91.996094 221.921875 91.996094 L 227.480469 91.996094 C 231.6875 91.996094 235.109375 95.421875 235.109375 99.632812 L 235.109375 113.988281 C 235.109375 118.199219 231.6875 121.625 227.480469 121.625 L 221.921875 121.625 C 218.402344 121.625 215.460938 123.902344 214.542969 127.28125 C 212.75 134.023438 210.085938 140.394531 206.6875 146.300781 C 204.921875 149.335938 205.421875 153.019531 207.878906 155.503906 L 211.835938 159.464844 C 214.804688 162.433594 214.804688 167.285156 211.835938 170.25 L 201.679688 180.417969 C 198.710938 183.386719 193.863281 183.386719 190.90625 180.417969 L 186.972656 176.457031 C 184.492188 173.972656 180.789062 173.488281 177.757812 175.238281 C 171.871094 178.648438 165.484375 181.332031 158.753906 183.125 C 155.375 184.027344 153.105469 186.988281 153.105469 190.488281 L 153.105469 196.078125 C 153.105469 200.289062 149.683594 203.714844 145.5 203.714844 L 131.136719 203.714844 C 126.953125 203.714844 123.53125 200.289062 123.53125 196.078125 L 123.53125 190.488281 C 123.53125 186.988281 121.253906 184.019531 117.882812 183.125 C 111.144531 181.332031 104.757812 178.664062 98.878906 175.238281 C 95.847656 173.496094 92.144531 173.972656 89.664062 176.457031 L 85.730469 180.417969 C 82.765625 183.386719 77.917969 183.386719 74.957031 180.417969 L 64.800781 170.25 C 61.832031 167.277344 61.832031 162.425781 64.800781 159.464844 L 68.753906 155.503906 C 71.210938 153.046875 71.722656 149.335938 69.949219 146.300781 C 66.542969 140.394531 63.882812 134.015625 62.09375 127.28125 C 61.175781 123.894531 58.234375 121.625 54.714844 121.625 L 49.152344 121.625 C 44.945312 121.625 41.527344 118.199219 41.527344 113.988281 L 41.527344 99.640625 C 41.527344 95.429688 44.945312 92.003906 49.152344 92.003906 L 54.714844 92.003906 C 58.234375 92.003906 61.175781 89.722656 62.09375 86.347656 C 63.882812 79.605469 66.550781 73.234375 69.949219 67.351562 C 71.714844 64.316406 71.210938 60.609375 68.753906 58.125 L 64.800781 54.164062 C 61.832031 51.195312 61.832031 46.34375 64.800781 43.378906 L 74.957031 33.234375 C 77.925781 30.242188 82.773438 30.242188 85.730469 33.234375 L 89.664062 37.171875 C 92.144531 39.65625 95.847656 40.140625 98.878906 38.390625 C 104.765625 34.980469 111.152344 32.320312 117.882812 30.5 C 121.261719 29.601562 123.53125 26.640625 123.53125 23.140625 L 123.53125 17.550781 C 123.53125 13.355469 126.953125 9.929688 131.136719 9.929688 Z M 131.136719 9.929688 " fill-opacity="1" fill-rule="evenodd"/><path fill="#bababa" d="M 138.449219 55.769531 C 166.480469 55.769531 189.210938 78.515625 189.210938 106.585938 C 189.210938 134.648438 166.488281 157.402344 138.449219 157.402344 C 110.414062 157.402344 87.683594 134.65625 87.683594 106.585938 C 87.683594 78.527344 110.40625 55.769531 138.449219 55.769531 Z M 138.449219 55.769531 " fill-opacity="1" fill-rule="evenodd"/><path fill="#e6e6e6" d="M 182.976562 82.183594 C 186.949219 89.433594 189.203125 97.734375 189.203125 106.59375 C 189.203125 134.65625 166.480469 157.410156 138.4375 157.410156 C 129.773438 157.410156 121.617188 155.253906 114.492188 151.40625 C 110.519531 144.160156 108.265625 135.859375 108.265625 126.996094 C 108.265625 98.933594 130.988281 76.179688 159.03125 76.179688 C 167.695312 76.179688 175.851562 78.339844 182.976562 82.183594 Z M 182.976562 82.183594 " fill-opacity="1" fill-rule="evenodd"/><path fill="#4068a3" d="M 153.128906 190.226562 C 153.128906 190.316406 153.105469 190.414062 153.105469 190.503906 L 153.105469 196.09375 C 153.105469 200.304688 149.683594 203.730469 145.5 203.730469 L 131.136719 203.730469 C 126.953125 203.730469 123.53125 200.304688 123.53125 196.09375 L 123.53125 190.503906 C 123.53125 187.003906 121.253906 184.035156 117.882812 183.144531 C 111.144531 181.351562 104.757812 178.679688 98.878906 175.253906 C 95.847656 173.511719 92.144531 173.988281 89.664062 176.472656 L 85.730469 180.433594 C 82.765625 183.402344 77.917969 183.402344 74.957031 180.433594 L 64.800781 170.265625 C 61.832031 167.292969 61.832031 162.441406 64.800781 159.480469 L 68.753906 155.519531 C 71.210938 153.0625 71.722656 149.351562 69.949219 146.316406 C 69.785156 145.992188 69.597656 145.675781 69.421875 145.375 L 74.015625 144.019531 C 77.761719 142.917969 81.695312 145.058594 82.796875 148.808594 L 84.261719 153.773438 C 85.179688 156.90625 87.984375 158.929688 91.226562 158.855469 C 97.6875 158.691406 104.074219 159.382812 110.203125 160.875 C 113.351562 161.636719 116.527344 160.234375 118.082031 157.378906 L 120.539062 152.824219 C 122.421875 149.402344 126.726562 148.136719 130.144531 149.992188 L 141.84375 156.363281 C 145.265625 158.230469 146.53125 162.554688 144.671875 165.980469 L 142.191406 170.53125 C 140.652344 173.390625 141.179688 176.8125 143.546875 179.046875 C 147.066406 182.40625 150.273438 186.152344 153.128906 190.226562 Z M 153.128906 190.226562 " fill-opacity="1" fill-rule="evenodd"/><path fill="#588fdf" d="M 57.789062 155.859375 L 70.5625 152.085938 C 74.308594 150.984375 78.265625 153.140625 79.367188 156.890625 L 80.816406 161.859375 C 81.734375 164.964844 84.539062 167.011719 87.804688 166.921875 C 94.265625 166.757812 100.628906 167.472656 106.765625 168.941406 C 109.9375 169.722656 113.105469 168.316406 114.648438 165.46875 L 117.128906 160.917969 C 118.992188 157.492188 123.3125 156.203125 126.734375 158.066406 L 138.429688 164.460938 C 141.851562 166.328125 143.117188 170.628906 141.261719 174.054688 L 138.78125 178.605469 C 137.214844 181.457031 137.765625 184.886719 140.109375 187.144531 C 144.707031 191.492188 148.75 196.484375 152.105469 202.003906 C 153.808594 204.761719 157.027344 206.027344 160.148438 205.109375 L 165.109375 203.640625 C 168.855469 202.539062 172.8125 204.695312 173.890625 208.429688 L 177.660156 221.21875 C 178.761719 224.96875 176.621094 228.925781 172.875 230.03125 L 167.914062 231.484375 C 164.785156 232.402344 162.765625 235.207031 162.839844 238.480469 C 163.003906 244.945312 162.3125 251.316406 160.820312 257.460938 C 160.058594 260.632812 161.460938 263.804688 164.316406 265.347656 L 168.863281 267.832031 C 172.285156 269.695312 173.546875 274.023438 171.691406 277.445312 L 165.328125 289.15625 C 163.464844 292.582031 159.144531 293.847656 155.722656 291.988281 L 151.175781 289.503906 C 148.320312 287.9375 144.898438 288.492188 142.671875 290.835938 C 138.300781 295.4375 133.339844 299.488281 127.828125 302.847656 C 125.046875 304.550781 123.808594 307.773438 124.722656 310.894531 L 126.191406 315.863281 C 127.292969 319.613281 125.136719 323.546875 121.390625 324.652344 L 108.617188 328.425781 C 104.894531 329.527344 100.9375 327.386719 99.835938 323.636719 L 98.367188 318.671875 C 97.453125 315.539062 94.648438 313.515625 91.40625 313.589844 C 84.945312 313.753906 78.554688 313.0625 72.429688 311.570312 C 69.28125 310.808594 66.105469 312.210938 64.546875 315.066406 L 62.09375 319.621094 C 60.226562 323.042969 55.90625 324.308594 52.484375 322.453125 L 40.789062 316.082031 C 37.367188 314.214844 36.101562 309.890625 37.960938 306.464844 L 40.441406 301.914062 C 41.980469 299.058594 41.453125 295.632812 39.085938 293.402344 C 34.515625 289.027344 30.46875 284.058594 27.113281 278.542969 C 25.410156 275.757812 22.175781 274.515625 19.070312 275.433594 L 14.109375 276.902344 C 10.363281 277.980469 6.410156 275.847656 5.304688 272.097656 L 1.535156 259.308594 C 0.433594 255.585938 2.589844 251.625 6.335938 250.519531 L 11.296875 249.050781 C 14.402344 248.136719 16.445312 245.328125 16.355469 242.082031 C 16.191406 235.613281 16.90625 229.21875 18.375 223.085938 C 19.152344 219.9375 17.75 216.753906 14.902344 215.195312 L 10.355469 212.738281 C 6.933594 210.855469 5.644531 206.546875 7.511719 203.121094 L 13.898438 191.414062 C 15.761719 187.988281 20.085938 186.722656 23.480469 188.582031 L 28.027344 191.0625 C 30.898438 192.605469 34.304688 192.078125 36.554688 189.707031 C 40.902344 185.132812 45.886719 181.082031 51.398438 177.699219 C 54.179688 176.019531 55.421875 172.773438 54.503906 169.671875 L 53.039062 164.707031 C 51.902344 160.917969 54.066406 156.964844 57.789062 155.859375 Z M 57.789062 155.859375 " fill-opacity="1" fill-rule="evenodd"/><path fill="#4068a3" d="M 126.613281 303.746094 C 124.683594 305.539062 123.921875 308.257812 124.707031 310.878906 L 126.175781 315.847656 C 127.277344 319.59375 125.121094 323.53125 121.375 324.636719 L 108.597656 328.410156 C 104.878906 329.511719 100.921875 327.371094 99.820312 323.621094 L 98.351562 318.652344 C 97.4375 315.523438 94.632812 313.5 91.390625 313.574219 C 84.929688 313.738281 78.539062 313.046875 72.410156 311.554688 C 72.085938 311.480469 71.769531 311.414062 71.421875 311.390625 L 66.160156 306.171875 C 62.027344 302.101562 61.980469 295.390625 66.046875 291.242188 L 82.246094 274.792969 C 86.339844 270.65625 93.042969 270.605469 97.183594 274.703125 Z M 126.613281 303.746094 " fill-opacity="1" fill-rule="evenodd"/><path fill="#4068a3" d="M 167.078125 203.355469 C 170.136719 203.332031 172.980469 205.335938 173.882812 208.421875 L 177.652344 221.210938 C 178.753906 224.960938 176.613281 228.917969 172.867188 230.023438 L 167.90625 231.476562 C 164.777344 232.390625 162.757812 235.199219 162.832031 238.46875 C 162.992188 244.9375 162.304688 251.308594 160.8125 257.453125 C 160.050781 260.625 161.453125 263.796875 164.308594 265.339844 L 168.855469 267.824219 C 172.277344 269.6875 173.539062 274.015625 171.683594 277.4375 L 165.320312 289.148438 C 163.457031 292.574219 159.136719 293.839844 155.714844 291.980469 L 151.167969 289.496094 C 148.3125 287.929688 144.890625 288.484375 142.664062 290.828125 C 138.292969 295.429688 133.332031 299.480469 127.820312 302.839844 C 125.039062 304.542969 123.800781 307.765625 124.714844 310.886719 L 126.183594 315.855469 C 127.285156 319.605469 125.128906 323.539062 121.382812 324.644531 L 116.699219 326.046875 L 101.804688 311.117188 C 98.449219 311.117188 95.054688 311.117188 91.535156 311.140625 L 93.691406 303.015625 L 77.445312 286.730469 L 125.378906 238.746094 L 127.382812 236.589844 C 145.476562 217.808594 152.390625 207.753906 167.078125 203.355469 Z M 167.078125 203.355469 " fill-opacity="1" fill-rule="evenodd"/><path fill="#bababa" d="M 76.3125 194.753906 C 101.289062 187.394531 127.488281 201.675781 134.839844 226.679688 C 142.191406 251.65625 127.925781 277.886719 102.964844 285.246094 C 78.011719 292.628906 51.789062 278.324219 44.4375 253.335938 C 37.082031 228.367188 51.351562 202.117188 76.3125 194.753906 Z M 76.3125 194.753906 " fill-opacity="1" fill-rule="evenodd"/><path fill="#878787" d="M 106.621094 284.011719 C 105.429688 284.472656 104.207031 284.886719 102.964844 285.253906 C 92.742188 288.289062 82.285156 287.671875 73.019531 284.148438 L 82.238281 274.785156 C 86.332031 270.644531 93.035156 270.597656 97.175781 274.695312 Z M 106.621094 284.011719 " fill-opacity="1" fill-rule="evenodd"/><path fill="#e6e6e6" d="M 122.882812 206.578125 C 128.332031 211.984375 132.511719 218.792969 134.832031 226.679688 C 142.183594 251.65625 127.917969 277.886719 102.957031 285.246094 C 95.238281 287.523438 87.425781 287.726562 80.074219 286.210938 C 74.625 280.78125 70.417969 273.972656 68.097656 266.109375 C 60.746094 241.109375 75.015625 214.878906 99.988281 207.519531 C 107.699219 205.25 115.53125 205.039062 122.882812 206.578125 Z M 122.882812 206.578125 " fill-opacity="1" fill-rule="evenodd"/><path fill="#969696" d="M 106.621094 284.011719 C 105.429688 284.472656 104.207031 284.886719 102.964844 285.253906 C 95.246094 287.535156 87.433594 287.738281 80.082031 286.21875 C 78.539062 284.703125 77.113281 283.070312 75.808594 281.339844 L 82.246094 274.785156 C 86.339844 270.644531 93.042969 270.597656 97.183594 274.695312 Z M 106.621094 284.011719 " fill-opacity="1" fill-rule="evenodd"/><path fill="#969696" d="M 135.269531 228.230469 C 141.59375 252.753906 127.414062 278.054688 102.957031 285.253906 C 95.238281 287.535156 87.425781 287.738281 80.074219 286.21875 C 79.707031 285.855469 79.359375 285.503906 79.019531 285.140625 L 125.363281 238.746094 L 127.367188 236.589844 C 130.261719 233.585938 132.863281 230.800781 135.269531 228.230469 Z M 135.269531 228.230469 " fill-opacity="1" fill-rule="evenodd"/><path fill="#ffa816" d="M 224.382812 258.019531 C 206.046875 244.566406 186.082031 230.046875 169.714844 214.199219 C 158.804688 203.617188 149.652344 192.257812 144.761719 177.648438 C 139.613281 162.28125 139.867188 144.875 139.6875 128.8125 C 139.4375 107.925781 138.949219 87.015625 138.886719 66.109375 C 138.835938 49.480469 151.773438 35.71875 168.367188 34.753906 C 188.683594 33.5625 208.050781 26.566406 224.53125 14.578125 C 235.578125 6.554688 250.21875 6.554688 261.292969 14.578125 C 277.765625 26.566406 297.117188 33.5625 317.457031 34.753906 C 334.050781 35.71875 346.988281 49.472656 346.914062 66.109375 C 346.851562 87.023438 346.386719 107.925781 346.136719 128.8125 C 345.949219 144.875 346.210938 162.28125 341.0625 177.648438 C 336.164062 192.257812 327.019531 203.617188 316.109375 214.199219 C 299.75 230.046875 279.777344 244.566406 261.421875 258.019531 C 250.308594 266.183594 235.507812 266.183594 224.382812 258.019531 Z M 224.382812 258.019531 " fill-opacity="1" fill-rule="evenodd"/><path fill="#cf8812" d="M 224.382812 258.019531 C 218.335938 253.582031 212.136719 249.050781 205.933594 244.355469 L 258.691406 242.210938 C 263.585938 242.578125 267.308594 240.230469 271.605469 237.863281 L 317.910156 212.398438 C 317.308594 212.996094 316.695312 213.589844 316.09375 214.191406 C 299.734375 230.039062 279.761719 244.558594 261.40625 258.011719 C 250.308594 266.183594 235.507812 266.183594 224.382812 258.019531 Z M 202.941406 242.097656 C 191.316406 233.261719 179.824219 223.96875 169.714844 214.199219 C 166.796875 211.367188 164.015625 208.496094 161.398438 205.507812 C 173.417969 199.917969 189.867188 199.574219 226.015625 202.035156 C 249.148438 203.625 249.683594 232.515625 227.304688 237.203125 Z M 202.941406 242.097656 " fill-opacity="1" fill-rule="evenodd"/><path fill="#b3b3b3" d="M 234.613281 230.800781 C 167.128906 181.226562 167.402344 174.535156 166.851562 129.707031 C 166.464844 96.078125 166.253906 98.902344 166.1875 75.742188 C 166.140625 68.292969 171.953125 62.125 179.378906 61.6875 C 199.027344 60.535156 218.144531 53.863281 234.664062 41.863281 C 239.671875 38.226562 246.152344 38.226562 251.136719 41.863281 C 267.679688 53.871094 286.796875 60.542969 306.421875 61.6875 C 313.863281 62.125 319.660156 68.292969 319.636719 75.742188 C 319.5625 98.902344 319.359375 96.078125 318.972656 129.707031 C 318.421875 174.542969 318.695312 181.234375 251.210938 230.800781 C 246.191406 234.511719 239.617188 234.511719 234.613281 230.800781 Z M 234.613281 230.800781 " fill-opacity="1" fill-rule="evenodd"/><path fill="#919191" d="M 234.613281 230.800781 C 217.867188 218.492188 205.292969 208.835938 195.851562 200.574219 C 204.078125 200.6875 213.960938 201.199219 226.023438 202.027344 C 244.863281 203.316406 248.703125 222.726562 237.394531 232.417969 C 236.421875 232.003906 235.484375 231.453125 234.613281 230.800781 Z M 234.613281 230.800781 " fill-opacity="1" fill-rule="evenodd"/><path fill="#e6e6e6" d="M 180.105469 61.636719 C 199.480469 60.371094 218.34375 53.726562 234.65625 41.855469 C 239.664062 38.21875 246.140625 38.21875 251.128906 41.855469 C 267.671875 53.863281 286.789062 60.535156 306.414062 61.679688 C 313.855469 62.117188 319.652344 68.285156 319.628906 75.734375 C 319.554688 98.894531 319.351562 96.070312 318.964844 129.699219 C 318.527344 166.34375 318.613281 177.519531 281.785156 207.449219 C 256.535156 196.109375 231.347656 174.964844 211.683594 146.238281 C 192.695312 118.523438 182.148438 88.578125 180.105469 61.636719 Z M 180.105469 61.636719 " fill-opacity="1" fill-rule="evenodd"/><path fill="#708446" d="M 242.90625 83.152344 C 272.253906 83.152344 296.0625 106.984375 296.0625 136.359375 C 296.0625 165.738281 272.253906 189.570312 242.90625 189.570312 C 213.5625 189.570312 189.753906 165.738281 189.753906 136.359375 C 189.753906 106.984375 213.5625 83.152344 242.90625 83.152344 Z M 242.90625 83.152344 " fill-opacity="1" fill-rule="evenodd"/><path fill="#b4c08b" d="M 287.785156 107.828125 C 293.023438 116.089844 296.054688 125.859375 296.054688 136.351562 C 296.054688 165.730469 272.246094 189.5625 242.898438 189.5625 C 233.894531 189.5625 225.390625 187.304688 217.949219 183.355469 C 212.734375 175.09375 209.679688 165.324219 209.679688 154.832031 C 209.679688 125.453125 233.488281 101.621094 262.832031 101.621094 C 271.855469 101.621094 280.335938 103.875 287.785156 107.828125 Z M 287.785156 107.828125 " fill-opacity="1" fill-rule="evenodd"/><path fill="#ffffff" d="M 219.011719 144.335938 C 216.804688 142.128906 216.804688 138.542969 219.011719 136.3125 C 221.238281 134.105469 224.824219 134.105469 227.027344 136.3125 L 238.148438 147.445312 L 257.890625 113.21875 C 259.453125 110.507812 262.898438 109.582031 265.605469 111.125 C 268.296875 112.6875 269.238281 116.136719 267.671875 118.847656 L 244.511719 159.035156 C 244.238281 159.632812 243.847656 160.1875 243.363281 160.6875 C 241.132812 162.894531 237.550781 162.894531 235.320312 160.6875 Z M 219.011719 144.335938 " fill-opacity="1" fill-rule="nonzero"/><path fill="#ffb7b2" d="M 127.367188 248.304688 C 159.816406 214.652344 156.363281 208.996094 226.015625 213.738281 C 249.148438 215.328125 249.683594 244.242188 227.304688 248.90625 L 188.148438 256.792969 L 258.691406 253.921875 C 263.585938 254.285156 267.308594 251.964844 271.605469 249.597656 L 330.886719 216.972656 C 351.339844 205.726562 374.550781 220.773438 357.242188 236.433594 C 254.71875 329.324219 248.632812 328.585938 170.777344 324.8125 L 137.273438 358.351562 L 101.789062 322.832031 C 98.433594 322.832031 95.035156 322.832031 91.519531 322.859375 L 93.675781 314.71875 L 77.429688 298.457031 L 125.363281 250.449219 Z M 127.367188 248.304688 " fill-opacity="1" fill-rule="evenodd"/><path fill="#ff8281" d="M 354.957031 214.839844 C 363.710938 218.5 367.269531 227.378906 357.25 236.441406 C 254.742188 329.324219 248.632812 328.585938 170.777344 324.8125 L 137.273438 358.351562 L 125.296875 346.367188 L 170.777344 301.09375 C 248.054688 304.851562 254.644531 305.605469 354.957031 214.839844 Z M 354.957031 214.839844 " fill-opacity="1" fill-rule="evenodd"/><path fill="#ffa816" d="M 87.269531 279.3125 L 71.074219 295.761719 C 67.003906 299.902344 67.054688 306.621094 71.1875 310.695312 L 125.945312 364.769531 C 130.082031 368.84375 136.792969 368.796875 140.863281 364.65625 L 157.058594 348.207031 C 161.152344 344.09375 161.105469 337.375 156.972656 333.277344 L 102.210938 279.222656 C 98.070312 275.132812 91.355469 275.175781 87.269531 279.3125 Z M 87.269531 279.3125 " fill-opacity="1" fill-rule="evenodd"/><path fill="#a7a7a7" d="M 140.691406 157.355469 C 139.957031 157.402344 139.203125 157.402344 138.4375 157.402344 C 131.914062 157.402344 125.6875 156.183594 119.941406 153.929688 L 120.539062 152.824219 C 122.421875 149.402344 126.726562 148.136719 130.144531 149.992188 L 140.53125 155.648438 C 140.578125 156.226562 140.652344 156.800781 140.691406 157.355469 Z M 140.691406 157.355469 " fill-opacity="1" fill-rule="evenodd"/></svg>